<svg width="24" height="24" viewBox="0 0 24 24" fill="none" xmlns="http://www.w3.org/2000/svg">
<path d="M16.9993 8.85577C17.1696 8.85725 17.3329 8.9258 17.4534 9.0462C17.5738 9.16667 17.6423 9.32995 17.6438 9.50031C17.6453 9.67064 17.5795 9.83473 17.4612 9.95734L12.4592 14.9593C12.3989 15.0197 12.3271 15.0682 12.2483 15.1009C12.1697 15.1334 12.0853 15.1497 12.0002 15.1497C11.9149 15.1497 11.83 15.1335 11.7512 15.1009C11.6724 15.0682 11.6006 15.0197 11.5403 14.9593L6.53833 9.95734C6.42013 9.83478 6.35423 9.67058 6.35571 9.50031C6.35725 9.32996 6.42568 9.16667 6.54614 9.0462C6.66661 8.92574 6.82989 8.85731 7.00024 8.85577C7.17052 8.85429 7.33472 8.92019 7.45728 9.03839L11.9993 13.5804L16.5403 9.04034L16.5422 9.03839C16.6648 8.9201 16.829 8.85434 16.9993 8.85577Z" fill="#BDBDBD" stroke="#BDBDBD" stroke-width="0.3"/>
</svg>
