<svg width="24" height="24" viewBox="0 0 24 24" fill="none" xmlns="http://www.w3.org/2000/svg">
<g clip-path="url(#clip0_102_729)">
<path d="M12.75 3H6.75C6.336 3 6 3.336 6 3.75V9.75C6 10.164 6.336 10.5 6.75 10.5H12.75C13.164 10.5 13.5 10.164 13.5 9.75V3.75C13.5 3.336 13.164 3 12.75 3ZM12 9H7.5V4.5H12V9Z" fill="#5B6B7A"/>
<path d="M22.281 7.7145L19.275 4.7085C18.9825 4.416 18.507 4.416 18.2145 4.7085C17.922 5.001 17.922 5.4765 18.2145 5.769L21 8.5545V17.244C21 17.658 20.6625 17.994 20.25 17.994C19.8375 17.994 19.5 17.658 19.5 17.244V11.244C19.5 10.0035 18.4905 8.994 17.25 8.994H16.5V3C16.5 1.3455 15.1545 0 13.5 0H6C4.3455 0 3 1.3455 3 3V22.5H2.25C1.836 22.5 1.5 22.836 1.5 23.25C1.5 23.664 1.836 24 2.25 24H3.75H15.75H17.25C17.664 24 18 23.664 18 23.25C18 22.836 17.664 22.5 17.25 22.5H16.5V10.494H17.25C17.6625 10.494 18 10.83 18 11.244V17.244C18 18.4845 19.0095 19.494 20.25 19.494C21.4905 19.494 22.5 18.4845 22.5 17.244V8.244C22.5 8.0445 22.4205 7.854 22.281 7.7145ZM4.5 22.5V3C4.5 2.1735 5.172 1.5 6 1.5H13.5C14.328 1.5 15 2.1735 15 3V22.5H4.5Z" fill="#5B6B7A"/>
</g>
<defs>
<clipPath id="clip0_102_729">
<rect width="24" height="24" fill="white"/>
</clipPath>
</defs>
</svg>
