<svg width="24" height="24" viewBox="0 0 24 24" fill="none" xmlns="http://www.w3.org/2000/svg">
<g clip-path="url(#clip0_102_755)">
<path d="M12 16.5C10.3455 16.5 9 15.1545 9 13.5C9 11.8455 10.3455 10.5 12 10.5C13.6545 10.5 15 11.8455 15 13.5C15 15.1545 13.6545 16.5 12 16.5ZM12 12C11.172 12 10.5 12.672 10.5 13.5C10.5 14.328 11.172 15 12 15C12.828 15 13.5 14.328 13.5 13.5C13.5 12.672 12.828 12 12 12Z" fill="#5B6B7A"/>
<path d="M23.8905 10.4625C23.1345 4.563 18.105 0 12 0C5.895 0 0.8655 4.563 0.1095 10.4625C0.045 10.9665 0 11.478 0 12C0 12.3 0.024 12.5925 0.045 12.8865C0.063 13.1325 0.0885 13.3755 0.1215 13.6155C0.1905 14.124 0.291 14.622 0.4215 15.108C1.527 19.233 4.767 22.4715 8.8905 23.577C9.3765 23.7075 9.8745 23.808 10.383 23.877C10.914 23.9505 11.451 24 12 24C12.549 24 13.086 23.9505 13.617 23.8785C14.1255 23.8095 14.6235 23.709 15.1095 23.5785C19.2345 22.473 22.473 19.233 23.5785 15.1095C23.709 14.6235 23.8095 14.1255 23.8785 13.617C23.9115 13.3755 23.937 13.1325 23.955 12.888C23.976 12.5925 24 12.3 24 12C24 11.478 23.955 10.9665 23.8905 10.4625ZM12 1.5C16.704 1.5 20.6955 4.6095 22.0275 8.8815C19.467 7.089 16.0395 6 12 6C7.9605 6 4.533 7.089 1.9725 8.8815C3.3045 4.6095 7.296 1.5 12 1.5ZM1.9545 15.0465C5.7225 15.2775 8.724 18.279 8.955 22.047C5.61 21.03 2.97 18.39 1.9545 15.0465ZM15.0465 22.0455C15.2775 18.2775 18.279 15.276 22.047 15.045C21.03 18.39 18.39 21.03 15.0465 22.0455ZM22.5 12C22.5 12.513 22.4505 13.0125 22.3785 13.506C17.505 13.5705 13.5705 17.505 13.506 22.3785C13.0125 22.4505 12.513 22.5 12 22.5C11.487 22.5 10.9875 22.4505 10.494 22.3785C10.4295 17.505 6.495 13.5705 1.6215 13.506C1.5495 13.0125 1.5 12.513 1.5 12C1.5 11.7075 1.521 11.421 1.5435 11.1345C3.96 8.871 7.6455 7.5 12 7.5C16.3545 7.5 20.04 8.871 22.4565 11.1345C22.479 11.421 22.5 11.7075 22.5 12Z" fill="#5B6B7A"/>
</g>
<defs>
<clipPath id="clip0_102_755">
<rect width="24" height="24" fill="white"/>
</clipPath>
</defs>
</svg>
