<svg width="22" height="23" viewBox="0 0 22 23" fill="none" xmlns="http://www.w3.org/2000/svg">
<path d="M11 1C5.48597 1 1 5.48597 1 11C1 16.514 5.48597 21 11 21C16.514 21 21 16.514 21 11C21 5.48597 16.514 1 11 1ZM14.37 14.37C14.0167 14.7234 13.4343 14.7198 13.0845 14.37L10.3572 11.6428C10.1868 11.4723 10.0909 11.241 10.0909 11V5.54545C10.0909 5.04341 10.498 4.63636 11 4.63636C11.502 4.63636 11.9091 5.04341 11.9091 5.54545V10.6236L14.37 13.0845C14.7251 13.4395 14.7251 14.0146 14.37 14.37Z" fill="#FF9D29"/>
</svg>
