<svg width="60" height="60" viewBox="0 0 60 60" fill="none" xmlns="http://www.w3.org/2000/svg">
<path d="M0 0H41.5385L60 18.4615V60H0V0Z" fill="#FF9D29"/>
<g clip-path="url(#clip0_102_286)">
<path d="M29.9999 22.7885L31.6711 26.3492L35.4085 26.9207L32.7042 29.6917L33.3424 33.6058L29.9999 31.7578L26.6573 33.6058L27.2955 29.6917L24.5912 26.9207L28.3286 26.3492L29.9999 22.7885ZM29.9999 20.9856C29.3004 20.9856 28.6657 21.3894 28.3683 22.0223L27.1062 24.7122L24.319 25.1376C23.6501 25.2404 23.0966 25.7074 22.8821 26.3474C22.6675 26.9874 22.8298 27.6959 23.3004 28.1791L25.3701 30.2993L24.8779 33.3155C24.7661 33.997 25.0546 34.6821 25.6189 35.0805C25.929 35.2987 26.2931 35.4087 26.6573 35.4087C26.9566 35.4087 27.2577 35.3348 27.5299 35.1833L29.9999 33.8185L32.4698 35.1833C32.7421 35.3348 33.0431 35.4087 33.3424 35.4087C33.7066 35.4087 34.0708 35.2987 34.3809 35.0805C34.9452 34.6821 35.2336 33.997 35.1219 33.3155L34.6297 30.2993L36.6994 28.1791C37.1717 27.6959 37.334 26.9892 37.1195 26.3474C36.9049 25.7055 36.3496 25.2386 35.6826 25.1376L32.8953 24.7122L31.6333 22.0223C31.3358 21.3894 30.6994 20.9856 29.9999 20.9856Z" fill="white"/>
<path d="M29.9999 17.3798L39.0143 20.5348V31.042C39.0143 33.3804 38.0246 35.5979 36.3154 37.0943L29.9999 42.6202L23.6844 37.0943C21.9753 35.5979 20.9855 33.3804 20.9855 31.042V20.5348L29.9999 17.3798ZM29.9999 15.5769C29.798 15.5769 29.5979 15.6112 29.405 15.6779L20.3905 18.8329C19.6676 19.0871 19.1826 19.7686 19.1826 20.5348V31.042C19.1826 33.9068 20.3905 36.6076 22.4981 38.4519L28.8136 43.9777C29.1526 44.2752 29.5762 44.4231 29.9999 44.4231C30.4236 44.4231 30.8473 44.2752 31.188 43.9777L37.5035 38.4519C39.6093 36.6076 40.8172 33.9068 40.8172 31.042V20.5348C40.8172 19.7686 40.3323 19.0871 39.6093 18.8329L30.5949 15.6779C30.402 15.6112 30.2018 15.5769 29.9999 15.5769Z" fill="white"/>
</g>
<defs>
<clipPath id="clip0_102_286">
<rect width="28.8462" height="28.8462" fill="white" transform="translate(15.5769 15.5769)"/>
</clipPath>
</defs>
</svg>
