<svg width="60" height="60" viewBox="0 0 60 60" fill="none" xmlns="http://www.w3.org/2000/svg">
<path d="M0 0H41.5385L60 18.4615V60H0V0Z" fill="#020920"/>
<g clip-path="url(#clip0_102_652)">
<path d="M41.5312 19.1827H29.2969L23.7169 15.8347C23.4321 15.6634 23.1112 15.5769 22.7884 15.5769C22.5306 15.5769 22.2728 15.6328 22.033 15.7428C21.4922 15.9934 21.1082 16.4946 21.0108 17.0823L20.661 19.1827H19.1827C17.1905 19.1827 15.5769 20.7963 15.5769 22.7884V42.6202C15.5769 43.6154 16.3846 44.4231 17.3798 44.4231H42.6202C43.6154 44.4231 44.4231 43.6154 44.4231 42.6202V22.0745C44.4231 20.4771 43.1286 19.1827 41.5312 19.1827ZM22.7884 17.3798L34.8083 24.5913H21.5859L22.7884 17.3798ZM18.4904 21.1262C18.7031 21.036 18.9375 20.9856 19.1827 20.9856H20.36L19.7596 24.5913H19.1827C18.1893 24.5913 17.3798 23.7818 17.3798 22.7884C17.3798 22.0402 17.8395 21.3984 18.4904 21.1262ZM42.6202 37.2115H38.113C36.6202 37.2115 35.4086 36 35.4086 34.5072C35.4086 33.0144 36.6202 31.8029 38.113 31.8029H42.6202V37.2115ZM42.6202 30H38.113C35.6286 30 33.6058 32.0228 33.6058 34.5072C33.6058 36.9916 35.6286 39.0144 38.113 39.0144H42.6202V40.8173V42.6202H17.3798V25.8948C17.9116 26.2031 18.5228 26.3942 19.1827 26.3942H19.4585H42.6202V30ZM42.6202 24.5733V24.5913H38.3113L32.3023 20.9856H41.5312C42.1316 20.9856 42.6202 21.4741 42.6202 22.0745V24.5733Z" fill="white"/>
<path d="M38.1129 35.4086C38.6107 35.4086 39.0143 35.005 39.0143 34.5072C39.0143 34.0093 38.6107 33.6057 38.1129 33.6057C37.615 33.6057 37.2114 34.0093 37.2114 34.5072C37.2114 35.005 37.615 35.4086 38.1129 35.4086Z" fill="white"/>
</g>
<defs>
<clipPath id="clip0_102_652">
<rect width="28.8462" height="28.8462" fill="white" transform="translate(15.5769 15.5769)"/>
</clipPath>
</defs>
</svg>
