<svg width="50" height="50" viewBox="0 0 50 50" fill="none" xmlns="http://www.w3.org/2000/svg">
<path d="M0 0H34.6154L50 15.3846V50H0V0Z" fill="#020920"/>
<g clip-path="url(#clip0_102_1157)">
<path d="M25 20.4928C25 18.0078 22.9778 15.9856 20.4928 15.9856C18.0078 15.9856 15.9856 18.0078 15.9856 20.4928C15.9856 22.9778 18.0078 25 20.4928 25C22.9778 25 25 22.9778 25 20.4928ZM20.4928 23.4976C18.8357 23.4976 17.488 22.15 17.488 20.4928C17.488 18.8357 18.8357 17.488 20.4928 17.488C22.15 17.488 23.4976 18.8357 23.4976 20.4928C23.4976 22.15 22.15 23.4976 20.4928 23.4976Z" fill="white"/>
<path d="M30.2584 26.5024C28.7875 26.5024 27.3782 26.9396 26.2244 27.7028C24.8166 26.0246 22.7253 25 20.4927 25C16.3506 25 12.9807 28.3699 12.9807 32.512C12.9807 33.3413 13.6538 34.0144 14.4831 34.0144H24.9999H26.5023H35.5168C36.3461 34.0144 37.0192 33.3413 37.0192 32.512C37.0192 29.1977 33.9858 26.5024 30.2584 26.5024ZM24.9999 32.512H23.4975H14.4831C14.4831 29.1932 17.1739 26.5024 20.4927 26.5024C22.3422 26.5024 23.9813 27.3483 25.0796 28.6644C25.0961 28.6854 25.1111 28.7079 25.1276 28.729C25.4371 29.1091 25.7091 29.5222 25.9194 29.97C26.283 30.7437 26.5023 31.6001 26.5023 32.512H24.9999ZM28.0048 32.512C28.0048 31.4258 27.7614 30.3546 27.2791 29.3314C27.2175 29.1992 27.1499 29.0685 27.0793 28.9393C28.0017 28.3368 29.1285 28.0048 30.2584 28.0048C33.158 28.0048 35.5168 30.027 35.5168 32.512H28.0048Z" fill="white"/>
<path d="M34.0145 22.7465C34.0145 20.6717 32.3333 18.9905 30.2585 18.9905C28.1836 18.9905 26.5024 20.6717 26.5024 22.7465C26.5024 24.8213 28.1836 26.5025 30.2585 26.5025C32.3333 26.5025 34.0145 24.8213 34.0145 22.7465ZM30.2585 25.0001C29.016 25.0001 28.0048 23.989 28.0048 22.7465C28.0048 21.504 29.016 20.4929 30.2585 20.4929C31.5009 20.4929 32.5121 21.504 32.5121 22.7465C32.5121 23.989 31.5009 25.0001 30.2585 25.0001Z" fill="white"/>
</g>
<defs>
<clipPath id="clip0_102_1157">
<rect width="24.0385" height="24.0385" fill="white" transform="translate(12.9807 12.9807)"/>
</clipPath>
</defs>
</svg>
