<svg width="50" height="50" viewBox="0 0 50 50" fill="none" xmlns="http://www.w3.org/2000/svg">
<path d="M0 0H34.6154L50 15.3846V50H0V0Z" fill="#020920"/>
<g clip-path="url(#clip0_102_1126)">
<path d="M24.9999 12.9807C18.3623 12.9807 12.9807 18.3623 12.9807 24.9999C12.9807 31.6376 18.3623 37.0192 24.9999 37.0192C31.6376 37.0192 37.0192 31.6376 37.0192 24.9999C37.0192 18.3623 31.6376 12.9807 24.9999 12.9807ZM24.9999 35.5168C19.2007 35.5168 14.4831 30.7992 14.4831 24.9999C14.4831 19.2007 19.2007 14.4831 24.9999 14.4831C30.7992 14.4831 35.5168 19.2007 35.5168 24.9999C35.5168 30.7992 30.7992 35.5168 24.9999 35.5168Z" fill="white"/>
<path d="M25 18.2392C25.4146 18.2392 25.7512 17.9026 25.7512 17.488V15.9856C25.7512 15.5709 25.4146 15.2344 25 15.2344C24.5853 15.2344 24.2488 15.5709 24.2488 15.9856V17.488C24.2488 17.9026 24.5853 18.2392 25 18.2392Z" fill="white"/>
<path d="M28.3803 19.145C28.499 19.2126 28.6282 19.2456 28.7559 19.2456C29.0158 19.2456 29.2682 19.1104 29.4079 18.87L30.1591 17.569C30.3665 17.2099 30.2433 16.7501 29.8842 16.5428C29.5251 16.3355 29.0654 16.4587 28.8581 16.8178L28.1069 18.1188C27.898 18.4779 28.0212 18.9376 28.3803 19.145Z" fill="white"/>
<path d="M34.0143 24.2488H32.5119C32.0973 24.2488 31.7607 24.5853 31.7607 25C31.7607 25.4146 32.0973 25.7512 32.5119 25.7512H34.0143C34.429 25.7512 34.7656 25.4146 34.7656 25C34.7656 24.5853 34.429 24.2488 34.0143 24.2488Z" fill="white"/>
<path d="M33.182 28.8567L31.881 28.1055C31.5219 27.8967 31.0622 28.0214 30.8548 28.3804C30.6475 28.7395 30.7707 29.1992 31.1298 29.4066L32.4308 30.1578C32.5495 30.2254 32.6787 30.2584 32.8064 30.2584C33.0664 30.2584 33.3188 30.1232 33.4585 29.8828C33.6658 29.5238 33.5426 29.064 33.182 28.8567Z" fill="white"/>
<path d="M21.1432 16.8178C20.9344 16.4572 20.4746 16.334 20.1171 16.5428C19.758 16.7502 19.6348 17.2084 19.8421 17.569L20.5933 18.8701C20.7331 19.1104 20.9855 19.2457 21.2439 19.2457C21.3716 19.2457 21.5008 19.2141 21.6195 19.145C21.9786 18.9377 22.1017 18.4779 21.8944 18.1189L21.1432 16.8178Z" fill="white"/>
<path d="M18.8701 20.5935L17.569 19.8423C17.2084 19.6335 16.7502 19.7582 16.5428 20.1173C16.334 20.4763 16.4572 20.9361 16.8178 21.1434L18.1189 21.8946C18.2375 21.9637 18.3653 21.9953 18.493 21.9953C18.7529 21.9953 19.0053 21.86 19.145 21.6197C19.3523 21.2606 19.2291 20.8008 18.8701 20.5935Z" fill="white"/>
<path d="M18.2392 25C18.2392 24.5853 17.9026 24.2488 17.488 24.2488H15.9856C15.5709 24.2488 15.2344 24.5853 15.2344 25C15.2344 25.4146 15.5709 25.7512 15.9856 25.7512H17.488C17.9026 25.7512 18.2392 25.4146 18.2392 25Z" fill="white"/>
<path d="M18.1188 28.1055L16.8178 28.8567C16.4587 29.064 16.3355 29.5238 16.5428 29.8828C16.6825 30.1232 16.9349 30.2584 17.1949 30.2584C17.3226 30.2584 17.4518 30.2269 17.5705 30.1578L18.8715 29.4066C19.2306 29.1992 19.3538 28.7395 19.1465 28.3804C18.9361 28.0214 18.4749 27.8967 18.1188 28.1055Z" fill="white"/>
<path d="M25.0001 27.6291C26.4499 27.6291 27.6293 26.4497 27.6293 24.9999C27.6293 24.7911 27.5977 24.5898 27.5511 24.3945L33.1791 21.1448C33.5382 20.9374 33.6614 20.4777 33.4541 20.1186C33.2452 19.758 32.784 19.6363 32.4279 19.8437L26.7999 23.0934C26.3282 22.6487 25.6972 22.3707 25.0001 22.3707C23.5502 22.3707 22.3708 23.5501 22.3708 24.9999C22.3708 26.4497 23.5502 27.6291 25.0001 27.6291ZM25.0001 23.8731C25.6221 23.8731 26.1269 24.3779 26.1269 24.9999C26.1269 25.6219 25.6221 26.1267 25.0001 26.1267C24.3781 26.1267 23.8733 25.6219 23.8733 24.9999C23.8733 24.3779 24.3781 23.8731 25.0001 23.8731Z" fill="white"/>
<path d="M27.2535 31.0095H22.7463C22.3317 31.0095 21.9951 31.3461 21.9951 31.7607C21.9951 32.1754 22.3317 32.5119 22.7463 32.5119H27.2535C27.6682 32.5119 28.0047 32.1754 28.0047 31.7607C28.0047 31.3461 27.6682 31.0095 27.2535 31.0095Z" fill="white"/>
</g>
<defs>
<clipPath id="clip0_102_1126">
<rect width="24.0385" height="24.0385" fill="white" transform="translate(12.9807 12.9807)"/>
</clipPath>
</defs>
</svg>
