<svg width="319" height="11" viewBox="0 0 319 11" fill="none" xmlns="http://www.w3.org/2000/svg">
<path d="M307.667 5.33333C307.667 8.27885 310.054 10.6667 313 10.6667C315.946 10.6667 318.333 8.27885 318.333 5.33333C318.333 2.38781 315.946 -5.24521e-06 313 -5.24521e-06C310.054 -5.24521e-06 307.667 2.38781 307.667 5.33333ZM0 6.33333H3.9125V4.33333H0V6.33333ZM11.7375 6.33333H19.5625V4.33333H11.7375V6.33333ZM27.3875 6.33333H35.2125V4.33333H27.3875V6.33333ZM43.0375 6.33333H50.8625V4.33333H43.0375V6.33333ZM58.6875 6.33333H66.5125V4.33333H58.6875V6.33333ZM74.3375 6.33333H82.1625V4.33333H74.3375V6.33333ZM89.9875 6.33333H97.8125V4.33333H89.9875V6.33333ZM105.637 6.33333H113.462V4.33333H105.637V6.33333ZM121.287 6.33333H129.112V4.33333H121.287V6.33333ZM136.937 6.33333H144.762V4.33333H136.937V6.33333ZM152.587 6.33333H160.412V4.33333H152.587V6.33333ZM168.237 6.33333H176.062V4.33333H168.237V6.33333ZM183.887 6.33333H191.712V4.33333H183.887V6.33333ZM199.537 6.33333H207.362V4.33333H199.537V6.33333ZM215.187 6.33333H223.012V4.33333H215.187V6.33333ZM230.837 6.33333H238.662V4.33333H230.837V6.33333ZM246.487 6.33333H254.312V4.33333H246.487V6.33333ZM262.137 6.33333H269.962V4.33333H262.137V6.33333ZM277.787 6.33333H285.612V4.33333H277.787V6.33333ZM293.438 6.33333H301.263V4.33333H293.438V6.33333ZM309.088 6.33333H313V4.33333H309.088V6.33333ZM307.667 5.33333C307.667 8.27885 310.054 10.6667 313 10.6667C315.946 10.6667 318.333 8.27885 318.333 5.33333C318.333 2.38781 315.946 -5.24521e-06 313 -5.24521e-06C310.054 -5.24521e-06 307.667 2.38781 307.667 5.33333ZM0 6.33333H3.9125V4.33333H0V6.33333ZM11.7375 6.33333H19.5625V4.33333H11.7375V6.33333ZM27.3875 6.33333H35.2125V4.33333H27.3875V6.33333ZM43.0375 6.33333H50.8625V4.33333H43.0375V6.33333ZM58.6875 6.33333H66.5125V4.33333H58.6875V6.33333ZM74.3375 6.33333H82.1625V4.33333H74.3375V6.33333ZM89.9875 6.33333H97.8125V4.33333H89.9875V6.33333ZM105.637 6.33333H113.462V4.33333H105.637V6.33333ZM121.287 6.33333H129.112V4.33333H121.287V6.33333ZM136.937 6.33333H144.762V4.33333H136.937V6.33333ZM152.587 6.33333H160.412V4.33333H152.587V6.33333ZM168.237 6.33333H176.062V4.33333H168.237V6.33333ZM183.887 6.33333H191.712V4.33333H183.887V6.33333ZM199.537 6.33333H207.362V4.33333H199.537V6.33333ZM215.187 6.33333H223.012V4.33333H215.187V6.33333ZM230.837 6.33333H238.662V4.33333H230.837V6.33333ZM246.487 6.33333H254.312V4.33333H246.487V6.33333ZM262.137 6.33333H269.962V4.33333H262.137V6.33333ZM277.787 6.33333H285.612V4.33333H277.787V6.33333ZM293.438 6.33333H301.263V4.33333H293.438V6.33333ZM309.088 6.33333H313V4.33333H309.088V6.33333Z" fill="#FA1D1D"/>
</svg>
