<svg width="451" height="11" viewBox="0 0 451 11" fill="none" xmlns="http://www.w3.org/2000/svg">
<path d="M439.667 5.33333C439.667 8.27885 442.054 10.6667 445 10.6667C447.946 10.6667 450.333 8.27885 450.333 5.33333C450.333 2.38781 447.946 -5.36835e-07 445 -2.79329e-07C442.054 -2.18228e-08 439.667 2.38781 439.667 5.33333ZM8.74228e-08 6.33337L3.97321 6.33337L3.97321 4.33337L-8.74228e-08 4.33337L8.74228e-08 6.33337ZM11.9196 6.33337L19.8661 6.33337L19.8661 4.33337L11.9196 4.33337L11.9196 6.33337ZM27.8125 6.33337L35.7589 6.33337L35.7589 4.33337L27.8125 4.33337L27.8125 6.33337ZM43.7054 6.33337L51.6518 6.33337L51.6518 4.33337L43.7054 4.33337L43.7054 6.33337ZM59.5982 6.33337L67.5446 6.33337L67.5446 4.33337L59.5982 4.33337L59.5982 6.33337ZM75.4911 6.33337L83.4375 6.33336L83.4375 4.33336L75.4911 4.33337L75.4911 6.33337ZM91.3839 6.33336L99.3304 6.33336L99.3304 4.33336L91.3839 4.33336L91.3839 6.33336ZM107.277 6.33336L115.223 6.33336L115.223 4.33336L107.277 4.33336L107.277 6.33336ZM123.17 6.33336L131.116 6.33336L131.116 4.33336L123.17 4.33336L123.17 6.33336ZM139.062 6.33336L147.009 6.33336L147.009 4.33336L139.062 4.33336L139.062 6.33336ZM154.955 6.33336L162.902 6.33336L162.902 4.33336L154.955 4.33336L154.955 6.33336ZM170.848 6.33336L178.795 6.33336L178.795 4.33336L170.848 4.33336L170.848 6.33336ZM186.741 6.33336L194.687 6.33336L194.687 4.33336L186.741 4.33336L186.741 6.33336ZM202.634 6.33335L210.58 6.33335L210.58 4.33335L202.634 4.33335L202.634 6.33335ZM218.527 6.33335L226.473 6.33335L226.473 4.33335L218.527 4.33335L218.527 6.33335ZM234.42 6.33335L242.366 6.33335L242.366 4.33335L234.42 4.33335L234.42 6.33335ZM250.312 6.33335L258.259 6.33335L258.259 4.33335L250.312 4.33335L250.312 6.33335ZM266.205 6.33335L274.152 6.33335L274.152 4.33335L266.205 4.33335L266.205 6.33335ZM282.098 6.33335L290.045 6.33335L290.045 4.33335L282.098 4.33335L282.098 6.33335ZM297.991 6.33335L305.938 6.33335L305.938 4.33335L297.991 4.33335L297.991 6.33335ZM313.884 6.33334L321.83 6.33334L321.83 4.33334L313.884 4.33334L313.884 6.33334ZM329.777 6.33334L337.723 6.33334L337.723 4.33334L329.777 4.33334L329.777 6.33334ZM345.67 6.33334L353.616 6.33334L353.616 4.33334L345.67 4.33334L345.67 6.33334ZM361.563 6.33334L369.509 6.33334L369.509 4.33334L361.563 4.33334L361.563 6.33334ZM377.456 6.33334L385.402 6.33334L385.402 4.33334L377.456 4.33334L377.456 6.33334ZM393.348 6.33334L401.295 6.33334L401.295 4.33334L393.348 4.33334L393.348 6.33334ZM409.241 6.33334L417.188 6.33334L417.188 4.33334L409.241 4.33334L409.241 6.33334ZM425.134 6.33333L433.081 6.33333L433.081 4.33333L425.134 4.33333L425.134 6.33333ZM441.027 6.33333L445 6.33333L445 4.33333L441.027 4.33333L441.027 6.33333ZM439.667 5.33333C439.667 8.27885 442.054 10.6667 445 10.6667C447.946 10.6667 450.333 8.27885 450.333 5.33333C450.333 2.38781 447.946 -5.36835e-07 445 -2.79329e-07C442.054 -2.18228e-08 439.667 2.38781 439.667 5.33333ZM8.74228e-08 6.33337L3.97321 6.33337L3.97321 4.33337L-8.74228e-08 4.33337L8.74228e-08 6.33337ZM11.9196 6.33337L19.8661 6.33337L19.8661 4.33337L11.9196 4.33337L11.9196 6.33337ZM27.8125 6.33337L35.7589 6.33337L35.7589 4.33337L27.8125 4.33337L27.8125 6.33337ZM43.7054 6.33337L51.6518 6.33337L51.6518 4.33337L43.7054 4.33337L43.7054 6.33337ZM59.5982 6.33337L67.5446 6.33337L67.5446 4.33337L59.5982 4.33337L59.5982 6.33337ZM75.4911 6.33337L83.4375 6.33336L83.4375 4.33336L75.4911 4.33337L75.4911 6.33337ZM91.3839 6.33336L99.3304 6.33336L99.3304 4.33336L91.3839 4.33336L91.3839 6.33336ZM107.277 6.33336L115.223 6.33336L115.223 4.33336L107.277 4.33336L107.277 6.33336ZM123.17 6.33336L131.116 6.33336L131.116 4.33336L123.17 4.33336L123.17 6.33336ZM139.062 6.33336L147.009 6.33336L147.009 4.33336L139.062 4.33336L139.062 6.33336ZM154.955 6.33336L162.902 6.33336L162.902 4.33336L154.955 4.33336L154.955 6.33336ZM170.848 6.33336L178.795 6.33336L178.795 4.33336L170.848 4.33336L170.848 6.33336ZM186.741 6.33336L194.687 6.33336L194.687 4.33336L186.741 4.33336L186.741 6.33336ZM202.634 6.33335L210.58 6.33335L210.58 4.33335L202.634 4.33335L202.634 6.33335ZM218.527 6.33335L226.473 6.33335L226.473 4.33335L218.527 4.33335L218.527 6.33335ZM234.42 6.33335L242.366 6.33335L242.366 4.33335L234.42 4.33335L234.42 6.33335ZM250.312 6.33335L258.259 6.33335L258.259 4.33335L250.312 4.33335L250.312 6.33335ZM266.205 6.33335L274.152 6.33335L274.152 4.33335L266.205 4.33335L266.205 6.33335ZM282.098 6.33335L290.045 6.33335L290.045 4.33335L282.098 4.33335L282.098 6.33335ZM297.991 6.33335L305.938 6.33335L305.938 4.33335L297.991 4.33335L297.991 6.33335ZM313.884 6.33334L321.83 6.33334L321.83 4.33334L313.884 4.33334L313.884 6.33334ZM329.777 6.33334L337.723 6.33334L337.723 4.33334L329.777 4.33334L329.777 6.33334ZM345.67 6.33334L353.616 6.33334L353.616 4.33334L345.67 4.33334L345.67 6.33334ZM361.563 6.33334L369.509 6.33334L369.509 4.33334L361.563 4.33334L361.563 6.33334ZM377.456 6.33334L385.402 6.33334L385.402 4.33334L377.456 4.33334L377.456 6.33334ZM393.348 6.33334L401.295 6.33334L401.295 4.33334L393.348 4.33334L393.348 6.33334ZM409.241 6.33334L417.188 6.33334L417.188 4.33334L409.241 4.33334L409.241 6.33334ZM425.134 6.33333L433.081 6.33333L433.081 4.33333L425.134 4.33333L425.134 6.33333ZM441.027 6.33333L445 6.33333L445 4.33333L441.027 4.33333L441.027 6.33333Z" fill="#FA1D1D"/>
</svg>
