<svg width="239" height="36" viewBox="0 0 239 36" fill="none" xmlns="http://www.w3.org/2000/svg">
<path d="M47.32 28V7.96H53.92C55.56 7.96 57.08 8.13 58.48 8.47C59.9 8.79 61.13 9.34 62.17 10.12C63.23 10.88 64.05 11.91 64.63 13.21C65.23 14.49 65.53 16.08 65.53 17.98C65.53 19.9 65.23 21.5 64.63 22.78C64.05 24.06 63.23 25.09 62.17 25.87C61.13 26.63 59.9 27.18 58.48 27.52C57.08 27.84 55.56 28 53.92 28H47.32ZM52.06 24.01H54.01C54.87 24.01 55.69 23.94 56.47 23.8C57.27 23.66 57.98 23.39 58.6 22.99C59.24 22.57 59.74 21.96 60.1 21.16C60.46 20.36 60.64 19.3 60.64 17.98C60.64 16.66 60.46 15.6 60.1 14.8C59.74 13.98 59.24 13.37 58.6 12.97C57.98 12.55 57.27 12.27 56.47 12.13C55.69 11.97 54.87 11.89 54.01 11.89H52.06V24.01ZM67.8864 28V7.96H75.5964C77.3364 7.96 78.8864 8.13 80.2464 8.47C81.6264 8.81 82.7064 9.43 83.4864 10.33C84.2864 11.23 84.6864 12.51 84.6864 14.17C84.6864 14.93 84.5464 15.69 84.2664 16.45C83.9864 17.19 83.4964 17.87 82.7964 18.49C82.1164 19.11 81.1364 19.59 79.8564 19.93L85.6764 28H80.1864L74.7564 20.44H72.6264V28H67.8864ZM72.6264 16.48H75.7464C76.8664 16.48 77.7964 16.34 78.5364 16.06C79.2964 15.76 79.6764 15.15 79.6764 14.23C79.6764 13.29 79.2964 12.68 78.5364 12.4C77.7964 12.1 76.8664 11.95 75.7464 11.95H72.6264V16.48ZM87.9053 28V24.28H90.7253V11.68H87.9053V7.96H98.2253V11.68H95.4653V24.28H98.2253V28H87.9053ZM107.016 28L100.236 7.96H105.156L109.746 22.69L114.366 7.96H119.316L112.506 28H107.016ZM120.943 28V7.96H136.363V12.13H125.683V15.61H132.193V19.78H125.683V23.83H136.363V28H120.943ZM142.683 28L137.853 7.96H142.593L145.383 21.85L148.323 7.96H153.243L156.213 21.85L159.003 7.96H163.743L158.913 28H153.843L150.783 13.9L147.753 28H142.683ZM162.781 28L170.371 7.96H175.591L183.181 28H178.021L176.821 24.43H169.141L167.941 28H162.781ZM170.431 20.59H175.531L172.951 12.97L170.431 20.59ZM189.302 28V20.2L181.652 7.96H187.172L191.642 15.67L196.112 7.96H201.662L194.012 20.2V28H189.302ZM211.367 28.36C209.187 28.36 207.347 27.92 205.847 27.04C204.367 26.14 203.317 24.89 202.697 23.29L207.017 21.73C207.297 22.69 207.817 23.4 208.577 23.86C209.357 24.32 210.297 24.55 211.397 24.55C211.977 24.55 212.537 24.49 213.077 24.37C213.617 24.23 214.067 24.01 214.427 23.71C214.787 23.39 214.967 22.97 214.967 22.45C214.967 21.75 214.627 21.21 213.947 20.83C213.267 20.43 212.387 20.13 211.307 19.93L208.877 19.45C207.797 19.23 206.787 18.9 205.847 18.46C204.927 18 204.187 17.4 203.627 16.66C203.067 15.9 202.787 14.95 202.787 13.81C202.787 12.73 203.037 11.8 203.537 11.02C204.037 10.24 204.697 9.6 205.517 9.1C206.357 8.6 207.277 8.23 208.277 7.99C209.277 7.73 210.277 7.6 211.277 7.6C212.357 7.6 213.397 7.75 214.397 8.05C215.417 8.35 216.327 8.82 217.127 9.46C217.927 10.08 218.537 10.91 218.957 11.95L214.667 13.51C214.407 12.83 213.937 12.31 213.257 11.95C212.597 11.59 211.797 11.41 210.857 11.41C209.937 11.41 209.167 11.58 208.547 11.92C207.947 12.24 207.647 12.71 207.647 13.33C207.647 13.83 207.857 14.26 208.277 14.62C208.697 14.98 209.247 15.23 209.927 15.37L212.627 15.91C213.447 16.07 214.277 16.28 215.117 16.54C215.957 16.78 216.727 17.11 217.427 17.53C218.147 17.93 218.727 18.47 219.167 19.15C219.607 19.83 219.827 20.69 219.827 21.73C219.827 22.79 219.577 23.74 219.077 24.58C218.597 25.4 217.947 26.09 217.127 26.65C216.327 27.21 215.427 27.64 214.427 27.94C213.427 28.22 212.407 28.36 211.367 28.36Z" fill="#020920"/>
<g clip-path="url(#clip0_2001_1641)">
<path d="M34 18C34 16.3212 33.7663 14.7275 33.32 13.1975L30.8337 12.5387C30.4937 11.6462 30.0475 10.7963 29.5375 9.98875L32.385 10.7537C31.4925 8.84125 30.2388 7.14125 28.73 5.69625L26.2438 6.355C25.5 5.76 24.6925 5.22875 23.8425 4.80375L26.69 4.03875C24.99 2.84875 23.0775 1.9775 20.995 1.4675L19.1887 3.295C18.4875 3.1675 17.7437 3.125 17 3.125C16.7663 3.125 16.5325 3.125 16.2987 3.1675L18.4237 1.06375C17.9562 1.02125 17.4888 1 17 1C15.3212 1 13.7275 1.23375 12.1975 1.68L11.5387 4.16625C10.6462 4.50625 9.79625 4.9525 8.98875 5.4625L9.75375 2.615C7.84125 3.5075 6.14125 4.76125 4.69625 6.27L5.355 8.75625C4.76 9.5 4.22875 10.3075 3.80375 11.1575L3.03875 8.31C1.87 9.98875 0.9775 11.9225 0.4675 13.9838L2.31625 15.8325C2.18875 16.5338 2.125 17.2563 2.125 18C2.125 18.2337 2.125 18.4675 2.1675 18.7013L0.06375 16.5975C0.02125 17.065 0 17.5325 0 18C0 19.6575 0.23375 21.2725 0.68 22.7812L3.16625 23.44C3.50625 24.3538 3.9525 25.2038 4.4625 26.0113L1.615 25.2463C2.5075 27.1588 3.76125 28.8587 5.27 30.3037L7.75625 29.645C8.5 30.24 9.3075 30.7712 10.1575 31.1963L7.31 31.9613C8.98875 33.13 10.9225 34.0225 12.9838 34.5325L14.8325 32.705C15.5338 32.8113 16.2563 32.875 17 32.875C17.2337 32.875 17.4675 32.875 17.7013 32.8325L15.5975 34.9362C16.065 34.9788 16.5325 35 17 35C18.6575 35 20.2725 34.7663 21.7812 34.32L22.44 31.8337C23.3538 31.4937 24.2038 31.0475 25.0113 30.5375L24.2463 33.385C26.1588 32.4925 27.8587 31.2388 29.3037 29.73L28.6238 27.265C29.2188 26.5212 29.75 25.7138 30.1963 24.8425L30.9613 27.69C32.13 26.0113 33.0225 24.0775 33.5325 22.0163L31.705 20.1887C31.8113 19.4875 31.875 18.7437 31.875 18C31.875 17.7663 31.875 17.5325 31.8325 17.2987L33.9362 19.4025C33.9788 18.935 34 18.4675 34 18ZM17 26.5C12.3038 26.5 8.5 22.6963 8.5 18C8.5 13.3038 12.3038 9.5 17 9.5C21.6963 9.5 25.5 13.3038 25.5 18C25.5 22.6963 21.6963 26.5 17 26.5Z" fill="#020920"/>
<path d="M17 11.625C13.4938 11.625 10.625 14.4938 10.625 18C10.625 21.5063 13.4938 24.375 17 24.375C20.5063 24.375 23.375 21.5063 23.375 18C23.375 14.4938 20.5063 11.625 17 11.625ZM13.6425 18.0213C13.09 17.8513 12.7712 17.235 12.9625 16.6825C13.1325 16.13 13.7487 15.8325 14.3012 16.0025C14.8538 16.1937 15.1513 16.7888 14.9813 17.3412C14.79 17.8938 14.195 18.2125 13.6425 18.0213ZM15.98 21.2088C15.64 21.6763 14.9813 21.7825 14.4925 21.4425C14.025 21.1025 13.9188 20.4225 14.2587 19.955C14.62 19.4875 15.2787 19.3813 15.7462 19.7213C16.235 20.0613 16.3412 20.72 15.98 21.2088ZM17 15.875C16.405 15.875 15.9375 15.4075 15.9375 14.8125C15.9375 14.2175 16.405 13.75 17 13.75C17.595 13.75 18.0625 14.2175 18.0625 14.8125C18.0625 15.4075 17.595 15.875 17 15.875ZM19.5075 21.4425C19.0188 21.7825 18.36 21.6763 18.02 21.2088C17.6587 20.72 17.765 20.0613 18.2538 19.7213C18.7213 19.3813 19.38 19.4875 19.7413 19.955C20.0813 20.4225 19.975 21.1025 19.5075 21.4425ZM20.3575 18.0213C19.805 18.2125 19.21 17.8938 19.0187 17.3412C18.8487 16.7888 19.1463 16.1937 19.6988 16.0025C20.2513 15.8325 20.8675 16.13 21.0375 16.6825C21.2287 17.235 20.91 17.8513 20.3575 18.0213Z" fill="#FA1D1D"/>
</g>
<defs>
<clipPath id="clip0_2001_1641">
<rect width="34" height="34" fill="white" transform="translate(0 1)"/>
</clipPath>
</defs>
</svg>
