<svg width="22" height="23" viewBox="0 0 22 23" fill="none" xmlns="http://www.w3.org/2000/svg">
<path d="M6.44511 14.1071C5.84893 13.2261 5.49992 12.1644 5.49992 11.0221C5.49992 7.98309 7.96704 5.51099 10.9999 5.51099C14.0328 5.51099 16.4999 7.98309 16.4999 11.0221C16.4999 12.1644 16.1509 13.2261 15.5547 14.1071C16.615 14.7197 17.5609 15.5221 18.3064 16.509C19.4584 14.9733 20.1666 13.0865 20.1666 11.0221C20.1666 5.95768 16.0541 1.83691 10.9999 1.83691C5.94571 1.83691 1.83325 5.95768 1.83325 11.0221C1.83325 13.0865 2.54145 14.9733 3.69344 16.509C4.4389 15.5221 5.3849 14.7197 6.44511 14.1071Z" fill="#FF9D29"/>
<path d="M10.9991 16.5332C9.15356 16.5332 7.47307 17.4733 6.46655 18.9571C7.80899 19.7304 9.34278 20.2073 10.9991 20.2073C12.6554 20.2073 14.1892 19.7304 15.5316 18.9571C14.5251 17.4733 12.8446 16.5332 10.9991 16.5332Z" fill="#FF9D29"/>
<path d="M11 13.7777C12.5188 13.7777 13.75 12.544 13.75 11.0222C13.75 9.50031 12.5188 8.2666 11 8.2666C9.48122 8.2666 8.25 9.50031 8.25 11.0222C8.25 12.544 9.48122 13.7777 11 13.7777Z" fill="#FF9D29"/>
</svg>
