<svg width="24" height="24" viewBox="0 0 24 24" fill="none" xmlns="http://www.w3.org/2000/svg">
<g clip-path="url(#clip0_102_732)">
<path d="M22.425 10.86L16.005 6.27C14.55 5.13 12.735 4.5 10.905 4.5H3C2.685 4.5 2.415 4.695 2.295 4.98C2.265 5.085 1.38 7.395 1.14 8.91C0.855 10.605 0.78 11.865 0.765 12.42L0.225 12.975C0.075 13.11 0 13.305 0 13.5V16.5C0 18.15 1.35 19.5 3 19.5C4.11 19.5 5.07 18.9 5.595 18H18.405C18.93 18.9 19.89 19.5 21 19.5C22.65 19.5 24 18.15 24 16.5V13.905C24 12.705 23.415 11.565 22.425 10.86ZM6.75 6H10.905C12.405 6 13.89 6.51 15.105 7.47L18.3 9.75H7.5C7.08 9.75 6.75 9.42 6.75 9V6ZM1.5 16.5C1.5 16.395 1.515 16.305 1.53 16.215C1.665 15.525 2.28 15 3 15C3.825 15 4.5 15.675 4.5 16.5C4.5 17.325 3.825 18 3 18C2.175 18 1.5 17.325 1.5 16.5ZM6 16.5C6 14.835 4.65 13.5 3 13.5C2.46 13.5 1.935 13.65 1.5 13.905V13.815L2.025 13.275C2.175 13.14 2.25 12.945 2.25 12.75C2.25 12.735 2.265 11.295 2.61 9.15C2.775 8.175 3.255 6.735 3.525 6H5.25V9C5.25 10.245 6.255 11.25 7.5 11.25H20.4L21.555 12.09C22.155 12.51 22.5 13.185 22.5 13.905C22.065 13.65 21.54 13.5 21 13.5C19.35 13.5 18 14.835 18 16.5H6ZM19.5 16.5C19.5 15.675 20.175 15 21 15C21.72 15 22.335 15.525 22.47 16.215C22.485 16.305 22.5 16.395 22.5 16.5C22.5 17.325 21.825 18 21 18C20.175 18 19.5 17.325 19.5 16.5Z" fill="#5B6B7A"/>
<path d="M9.75 12H8.25C7.836 12 7.5 12.336 7.5 12.75C7.5 13.164 7.836 13.5 8.25 13.5H9.75C10.164 13.5 10.5 13.164 10.5 12.75C10.5 12.336 10.164 12 9.75 12Z" fill="#5B6B7A"/>
</g>
<defs>
<clipPath id="clip0_102_732">
<rect width="24" height="24" fill="white"/>
</clipPath>
</defs>
</svg>
