<svg width="132" height="20" viewBox="0 0 132 20" fill="none" xmlns="http://www.w3.org/2000/svg">
<path d="M10 0L12.2451 6.90983H19.5106L13.6327 11.1803L15.8779 18.0902L10 13.8197L4.12215 18.0902L6.36729 11.1803L0.489435 6.90983H7.75486L10 0Z" fill="#FF9D29"/>
<path d="M38 0L40.2451 6.90983H47.5106L41.6327 11.1803L43.8779 18.0902L38 13.8197L32.1221 18.0902L34.3673 11.1803L28.4894 6.90983H35.7549L38 0Z" fill="#FF9D29"/>
<path d="M66 0L68.2451 6.90983H75.5106L69.6327 11.1803L71.8779 18.0902L66 13.8197L60.1221 18.0902L62.3673 11.1803L56.4894 6.90983H63.7549L66 0Z" fill="#FF9D29"/>
<path d="M94 0L96.2451 6.90983H103.511L97.6327 11.1803L99.8779 18.0902L94 13.8197L88.1221 18.0902L90.3673 11.1803L84.4894 6.90983H91.7549L94 0Z" fill="#FF9D29"/>
<path d="M122 0L124.245 6.90983H131.511L125.633 11.1803L127.878 18.0902L122 13.8197L116.122 18.0902L118.367 11.1803L112.489 6.90983H119.755L122 0Z" fill="#FF9D29"/>
</svg>
