<svg width="24" height="24" viewBox="0 0 24 24" fill="none" xmlns="http://www.w3.org/2000/svg">
<g clip-path="url(#clip0_102_735)">
<path d="M12 0C5.373 0 0 5.373 0 12C0 18.627 5.373 24 12 24C18.627 24 24 18.627 24 12C24 5.373 18.627 0 12 0ZM12 22.5C6.21 22.5 1.5 17.79 1.5 12C1.5 6.21 6.21 1.5 12 1.5C17.79 1.5 22.5 6.21 22.5 12C22.5 17.79 17.79 22.5 12 22.5Z" fill="#5B6B7A"/>
<path d="M19.809 7.545C19.8015 7.53 19.8015 7.515 19.794 7.5C19.7835 7.482 19.767 7.473 19.755 7.4565C18.1905 4.7955 15.3045 3 12 3C7.0365 3 3 7.0365 3 12C3 13.755 3.5055 15.456 4.4625 16.92C4.6065 17.1405 4.8465 17.2605 5.091 17.2605C5.232 17.2605 5.373 17.2215 5.5005 17.1375C5.847 16.911 5.9445 16.446 5.718 16.0995C4.9215 14.88 4.5 13.4625 4.5 12C4.5 7.8645 7.8645 4.5 12 4.5C14.5005 4.5 16.7055 5.742 18.069 7.6305L13.452 10.296C13.059 9.96 12.5565 9.75 12 9.75C10.7595 9.75 9.75 10.7595 9.75 12C9.75 13.2405 10.7595 14.25 12 14.25C13.2405 14.25 14.25 13.2405 14.25 12C14.25 11.8605 14.2335 11.724 14.208 11.5905L18.8235 8.9265C19.2495 9.867 19.5 10.902 19.5 12C19.5 13.4595 19.08 14.874 18.2865 16.0905C18.06 16.437 18.159 16.902 18.5055 17.1285C18.849 17.3535 19.3155 17.2545 19.5435 16.9095C20.496 15.4485 21 13.7505 21 12C21 10.3785 20.5635 8.8605 19.809 7.545ZM12 12.75C11.586 12.75 11.25 12.414 11.25 12C11.25 11.586 11.586 11.25 12 11.25C12.414 11.25 12.75 11.586 12.75 12C12.75 12.414 12.414 12.75 12 12.75Z" fill="#5B6B7A"/>
<path d="M14.25 18H9.75C9.336 18 9 18.336 9 18.75C9 19.164 9.336 19.5 9.75 19.5H14.25C14.664 19.5 15 19.164 15 18.75C15 18.336 14.664 18 14.25 18Z" fill="#5B6B7A"/>
</g>
<defs>
<clipPath id="clip0_102_735">
<rect width="24" height="24" fill="white"/>
</clipPath>
</defs>
</svg>
