<svg width="80" height="60" viewBox="0 0 80 60" fill="none" xmlns="http://www.w3.org/2000/svg">
<path d="M75.907 39.907C74.8605 39.907 73.9535 40.3953 73.3953 41.1628L67.814 39.1395C68.7209 36.2791 69.2791 33.1395 69.2791 29.9302C69.2791 19.1163 63.5581 9.69767 55.0465 4.39534L51.8372 11.1628C57.907 15.2093 61.8837 22.1163 61.8837 29.9302C61.8837 32.2326 61.5349 34.4651 60.907 36.5581L55.186 34.5349C55.6046 33.0698 55.814 31.5349 55.814 29.9302C55.814 23.4419 52.0465 17.8605 46.6744 15.1395C46.4651 15.907 46.186 16.6046 45.9767 17.3721C45.6279 18.4186 45.2791 19.5349 44.9302 20.6512C48.0698 22.5349 50.2326 26.0233 50.2326 29.9302C50.2326 30.8372 50.093 31.7442 49.8837 32.5814L44.093 30.4884C44.093 30.2791 44.1628 30.0698 44.1628 29.9302C44.1628 27.2791 42 25.186 39.4186 25.186C37.7442 25.186 36.2791 26.093 35.3721 27.4186L29.5814 25.3256C31.3256 21.6279 35.0233 19.1163 39.3488 19.1163C40.8837 19.1163 42.3488 19.4651 43.6744 20.0233C44.1628 19.0465 44.6512 18.0698 45.1395 17.093C45.4884 16.3953 45.8372 15.6279 46.186 14.9302C44.093 14.0233 41.7907 13.4651 39.4186 13.4651C32.6512 13.4651 26.7907 17.5814 24.2791 23.3721L18.5581 21.3488C21.9767 13.186 30 7.39534 39.4186 7.39534C41.5116 7.39534 43.5349 7.67441 45.4884 8.23255L47.8605 1.18604C45.2093 0.418602 42.3488 0 39.4186 0C26.7907 0 15.9767 7.81395 11.5814 18.8372L6.55814 17.0233V16.9535C6.55814 15.1395 5.09302 13.6744 3.27907 13.6744C1.46511 13.6744 0 15.1395 0 16.9535C0 18.7674 1.46511 20.2326 3.27907 20.2326C4.32558 20.2326 5.23256 19.7442 5.79069 18.9767L10.814 20.7907C9.90698 23.6512 9.34883 26.7907 9.34883 30C9.34883 42.7674 17.3023 53.6512 28.5349 57.9767L30.907 50.9302C22.6046 47.5814 16.7442 39.4884 16.7442 30C16.7442 27.6977 17.093 25.4651 17.7209 23.3721L23.4419 25.3953C23.0233 26.8605 22.814 28.3953 22.814 30C22.814 36.2791 26.3721 41.7907 31.5349 44.5814C32.2326 43.186 32.9302 41.7907 33.6977 40.3256C33.8372 40.0465 33.9767 39.7674 34.1163 39.5581C30.7674 37.6744 28.5349 34.186 28.5349 30.0698C28.5349 29.1628 28.6744 28.2558 28.8837 27.4186L34.6744 29.5116C34.6744 29.7209 34.6046 29.9302 34.6046 30.0698C34.6046 32.7209 36.7674 34.8139 39.3488 34.8139C41.0233 34.8139 42.4884 33.907 43.3953 32.5814L49.1861 34.6744C47.4419 38.3721 43.7442 40.8837 39.4186 40.8837C39.0698 40.8837 38.7907 40.8837 38.4419 40.814C38.3023 41.2326 38.1628 41.6512 38.0233 42.0698C37.5349 43.5349 37.1163 44.9302 36.6977 46.3256C37.6046 46.4651 38.4419 46.5349 39.4186 46.5349C46.1861 46.5349 52.0465 42.4186 54.5581 36.6279L60.2791 38.6512C56.8605 46.8139 48.8372 52.6046 39.4186 52.6046C37.0465 52.6046 34.8139 52.2558 32.7209 51.5581L29.5116 58.3256C32.6512 59.4419 36 60 39.4186 60C52.0465 60 62.8605 52.186 67.2558 41.1628L72.8372 43.186V43.2558C72.8372 45.0698 74.3023 46.5349 76.1163 46.5349C77.9302 46.5349 79.3954 45.0698 79.3954 43.2558C79.3954 41.4419 77.6512 39.907 75.907 39.907Z" fill="#BDBDBD"/>
</svg>
