<svg width="60" height="60" viewBox="0 0 60 60" fill="none" xmlns="http://www.w3.org/2000/svg">
<path d="M1.73683 31.8158C2.13156 32.1316 2.5263 32.4473 2.92104 32.7631C3.31578 33.0789 3.78946 33.3158 4.1842 33.6316C4.65789 33.9473 5.13156 34.1842 5.60524 34.421C6.07893 34.6579 6.55263 34.8947 7.10526 35.1316C8.13158 35.5263 9.23682 35.921 10.3421 36.0789C11.4474 36.3158 12.6316 36.3947 13.8158 36.3947C15 36.3947 16.1842 36.2368 17.2895 36C17.6842 35.921 18 35.8421 18.3158 35.6842C17.4474 33.9473 16.9737 32.0526 16.9737 30C16.9737 26.8421 18.0789 24 19.8947 21.7894C19.5 21.1579 19.1053 20.5263 18.7105 19.8947C18 18.6316 17.4474 17.2895 16.9737 15.7895C16.5 14.2895 16.1842 12.7105 16.0263 11.1316C15.8684 9.55261 15.8684 7.89471 16.0263 6.31577C16.1053 5.52629 16.2631 4.73682 16.421 3.94734C16.5 3.7105 16.5 3.47366 16.5789 3.23682C6.78947 8.13155 0 18.3158 0 30.0789C0 30.1579 0 30.3158 0 30.3947C0.552632 30.7895 1.10525 31.2631 1.73683 31.8158Z" fill="#FF9D29"/>
<path d="M29.6845 0C29.5266 0.157895 29.2898 0.315787 29.1319 0.552629C28.5003 1.18421 27.8687 1.89474 27.2372 2.60526C26.9214 3 26.6056 3.39474 26.2898 3.78947C25.974 4.18421 25.7372 4.65789 25.4214 5.05263C25.1056 5.52631 24.8687 6 24.6319 6.47368C24.395 6.94737 24.1582 7.42105 23.9214 7.97368C23.5266 9 23.1319 10.1053 22.974 11.2105C22.7371 12.3158 22.6582 13.5 22.6582 14.6842C22.6582 15.8684 22.8161 17.0526 23.0529 18.1579C23.1319 18.3947 23.2108 18.6316 23.2108 18.8684C25.1845 17.6842 27.474 16.9737 29.9214 16.9737C33.1582 16.9737 36.1582 18.1579 38.3687 20.1316C38.6056 19.9737 38.8424 19.8158 39.1582 19.6579C40.4214 18.9474 41.7635 18.3947 43.2635 17.9211C44.7635 17.4474 46.3424 17.1316 47.9214 16.9737C49.5003 16.8158 51.1582 16.8158 52.7372 16.9737C53.5266 17.0526 54.3161 17.2105 55.1056 17.3684C55.8161 17.5263 56.6056 17.6842 57.3161 17.9211C52.6582 7.42105 42.1582 0.0789462 29.8424 0.0789462C29.9214 -1.20582e-06 29.8424 0 29.6845 0Z" fill="#FF9D29"/>
<path d="M29.0535 59.4473C29.685 58.8158 30.3166 58.1052 30.9482 57.3947C31.264 57 31.5798 56.6052 31.8956 56.2105C32.2114 55.8158 32.4482 55.3421 32.764 54.9473C33.0798 54.4737 33.3166 54 33.5535 53.5263C33.7903 53.0526 34.0272 52.5789 34.264 52.0263C34.6587 51 35.0535 49.8947 35.2113 48.7894C35.4482 47.6842 35.5272 46.5 35.5272 45.3158C35.5272 44.2105 35.3693 43.1052 35.1324 42C33.5535 42.6316 31.8166 43.0263 30.0798 43.0263C26.4482 43.0263 23.2114 41.5263 20.8429 39.2368C20.2903 39.6316 19.6587 40.0263 19.0271 40.3421C17.764 41.0526 16.4219 41.6052 14.9219 42.0789C13.4219 42.5526 11.8429 42.8684 10.264 43.0263C8.68505 43.1842 7.02715 43.1842 5.4482 43.0263C4.65873 42.9473 3.86925 42.7895 3.07978 42.6316C3.00083 42.6316 3.00082 42.6316 2.92188 42.6316C7.50082 52.421 17.2114 59.3684 28.6587 60C28.6587 59.7631 28.8166 59.6052 29.0535 59.4473Z" fill="#FF9D29"/>
<path d="M59.4474 30.9471C59.1316 30.6313 58.8948 30.3945 58.579 30.0787C57.9474 29.4471 57.2368 28.8155 56.5263 28.1839C56.1316 27.8681 55.7368 27.5523 55.3421 27.2366C54.9474 26.9208 54.4737 26.6839 54.079 26.3681C53.6053 26.0523 53.1316 25.8155 52.6579 25.5787C52.1842 25.3418 51.7105 25.105 51.1579 24.8681C50.1316 24.4734 49.0263 24.0787 47.921 23.9208C46.8158 23.6839 45.6316 23.605 44.4474 23.605C43.5 23.605 42.5526 23.7629 41.5263 23.9208C42.4737 25.7366 43.0263 27.7892 43.0263 29.9997C43.0263 33.7102 41.4474 37.026 39 39.3945C39.1579 39.6313 39.3158 39.8681 39.3947 40.105C40.1053 41.3681 40.6579 42.7102 41.1316 44.2102C41.6052 45.7102 41.921 47.2892 42.0789 48.8681C42.2368 50.4471 42.2368 52.105 42.0789 53.6839C42 54.4734 41.8421 55.2629 41.6842 56.0523C41.5263 56.605 41.4474 57.1576 41.2895 57.7102C51.7895 53.4471 59.2895 43.4208 59.8421 31.4997C59.7632 31.3418 59.6053 31.1839 59.4474 30.9471Z" fill="#FF9D29"/>
<path d="M30.0005 34.6578C32.6166 34.6578 34.7374 32.537 34.7374 29.9209C34.7374 27.3048 32.6166 25.1841 30.0005 25.1841C27.3844 25.1841 25.2637 27.3048 25.2637 29.9209C25.2637 32.537 27.3844 34.6578 30.0005 34.6578Z" fill="#FF9D29"/>
</svg>
