<svg width="60" height="60" viewBox="0 0 60 60" fill="none" xmlns="http://www.w3.org/2000/svg">
<path d="M29.6756 43.2171C22.5448 43.2171 16.7104 37.3828 16.7104 30.252H2.30469C2.30469 45.378 14.5496 57.6229 29.6756 57.6229V43.2171Z" fill="#BDBDBD"/>
<path d="M29.6756 43.2171C22.5448 43.2171 16.7104 37.3828 16.7104 30.252H2.30469C2.30469 45.378 14.5496 57.6229 29.6756 57.6229V43.2171Z" fill="#BDBDBD"/>
<path d="M29.6757 37.1667V30.252H22.761C24.1295 33.3492 26.5785 35.8702 29.6757 37.1667Z" fill="#BDBDBD"/>
<path d="M29.6758 0C14.9099 0 2.66507 10.5162 0 24.4898H14.1176H22.545H35.5102V37.455V45.8824V60C49.4838 57.3349 60 45.018 60 30.3241C59.928 13.5414 46.3865 0 29.6758 0ZM41.2004 51.8607V18.7275H8.06719C12.2449 10.9484 20.4561 5.7623 29.6758 5.7623C43.1452 5.7623 54.1656 16.7827 54.1656 30.2521C54.1656 39.4718 49.0516 47.7551 41.2004 51.8607Z" fill="#BDBDBD"/>
</svg>
